<svg width="20" height="20" viewBox="0 0 20 20" fill="none" xmlns="http://www.w3.org/2000/svg">
<path d="M14.707 10.4742C14.6995 9.10858 15.3172 8.07788 16.5674 7.31882C15.8679 6.31789 14.8112 5.7672 13.4158 5.65929C12.0949 5.5551 10.6512 6.42952 10.1228 6.42952C9.56467 6.42952 8.28467 5.6965 7.28003 5.6965C5.20376 5.72999 2.99725 7.35231 2.99725 10.6528C2.99725 11.6276 3.17586 12.6348 3.53307 13.6741C4.00934 15.0397 5.7284 18.3885 7.52189 18.3327C8.45956 18.3104 9.12188 17.6667 10.3423 17.6667C11.5256 17.6667 12.1395 18.3327 13.1851 18.3327C14.9935 18.3067 16.5488 15.263 17.0028 13.8937C14.5767 12.7514 14.707 10.5449 14.707 10.4742ZM12.6009 4.36441C13.6167 3.15884 13.5237 2.06117 13.494 1.66675C12.5972 1.71884 11.5591 2.27698 10.9675 2.96535C10.3163 3.70209 9.93304 4.61371 10.0149 5.64069C10.9861 5.7151 11.8716 5.2165 12.6009 4.36441Z" fill="#2A84C6"/>
</svg>
