<svg width="97" height="96" viewBox="0 0 97 96" fill="none" xmlns="http://www.w3.org/2000/svg">
<g opacity="0.8">
<path fill-rule="evenodd" clip-rule="evenodd" d="M29.6703 16.3668L76.2342 51.5814C77.1354 50.6666 78.4355 50.1433 79.8327 50.2608C82.2979 50.4682 84.1318 52.5921 83.9288 55.0047C83.7259 57.4173 81.563 59.205 79.0978 58.9976C77.4397 58.8582 76.0672 57.8517 75.408 56.4735L18.8012 75.2472C18.9618 75.7632 19.0274 76.3166 18.9795 76.8862C18.7766 79.2988 16.6136 81.0865 14.1485 80.8792C11.6833 80.6718 9.84939 78.5479 10.0523 76.1353C10.2479 73.8104 12.2635 72.0658 14.6157 72.1275L24.6483 18.2823C22.6178 17.7237 21.2077 15.8178 21.387 13.6867C21.5899 11.2741 23.7529 9.48637 26.218 9.69373C28.6832 9.90109 30.5171 12.025 30.3142 14.4376C30.2546 15.1461 30.0259 15.8007 29.6703 16.3668ZM75.0017 54.2538C74.9871 54.4267 74.983 54.5981 74.9889 54.7674L41.6808 58.8433C41.231 57.0654 39.6664 55.6808 37.7002 55.5154C37.272 55.4794 36.853 55.5036 36.4518 55.5807L27.3474 18.201C28.0351 17.9643 28.6497 17.5664 29.1396 17.0499L75.6905 52.2546C75.3091 52.8364 75.0637 53.5159 75.0017 54.2538ZM35.6103 55.8295L26.4949 18.4043C26.1762 18.4482 25.8477 18.4589 25.5135 18.433L15.4891 72.2339C16.3068 72.4139 17.0338 72.8096 17.6108 73.3522L33.3885 61.9482C32.991 61.2254 32.7953 60.386 32.8691 59.5084C33.0112 57.8186 34.1148 56.4354 35.6103 55.8295ZM33.8796 62.6638L18.1843 74.0082C18.2857 74.15 18.3786 74.2978 18.4626 74.4508L75.1151 55.6619C75.1116 55.648 75.1082 55.634 75.1048 55.62L41.807 59.6947C41.8156 59.8805 41.8123 60.069 41.7963 60.2593C41.5934 62.6719 39.4304 64.4596 36.9652 64.2522C35.712 64.1468 34.6218 63.546 33.8796 62.6638Z" fill="#B7EE81"/>
<path fill-rule="evenodd" clip-rule="evenodd" d="M29.6703 16.3668L76.2342 51.5814C77.1354 50.6666 78.4355 50.1433 79.8327 50.2608C82.2979 50.4682 84.1318 52.5921 83.9288 55.0047C83.7259 57.4173 81.563 59.205 79.0978 58.9976C77.4397 58.8582 76.0672 57.8517 75.408 56.4735L18.8012 75.2472C18.9618 75.7632 19.0274 76.3166 18.9795 76.8862C18.7766 79.2988 16.6136 81.0865 14.1485 80.8792C11.6833 80.6718 9.84939 78.5479 10.0523 76.1353C10.2479 73.8104 12.2635 72.0658 14.6157 72.1275L24.6483 18.2823C22.6178 17.7237 21.2077 15.8178 21.387 13.6867C21.5899 11.2741 23.7529 9.48637 26.218 9.69373C28.6832 9.90109 30.5171 12.025 30.3142 14.4376C30.2546 15.1461 30.0259 15.8007 29.6703 16.3668ZM75.0017 54.2538C74.9871 54.4267 74.983 54.5981 74.9889 54.7674L41.6808 58.8433C41.231 57.0654 39.6664 55.6808 37.7002 55.5154C37.272 55.4794 36.853 55.5036 36.4518 55.5807L27.3474 18.201C28.0351 17.9643 28.6497 17.5664 29.1396 17.0499L75.6905 52.2546C75.3091 52.8364 75.0637 53.5159 75.0017 54.2538ZM35.6103 55.8295L26.4949 18.4043C26.1762 18.4482 25.8477 18.4589 25.5135 18.433L15.4891 72.2339C16.3068 72.4139 17.0338 72.8096 17.6108 73.3522L33.3885 61.9482C32.991 61.2254 32.7953 60.386 32.8691 59.5084C33.0112 57.8186 34.1148 56.4354 35.6103 55.8295ZM33.8796 62.6638L18.1843 74.0082C18.2857 74.15 18.3786 74.2978 18.4626 74.4508L75.1151 55.6619C75.1116 55.648 75.1082 55.634 75.1048 55.62L41.807 59.6947C41.8156 59.8805 41.8123 60.069 41.7963 60.2593C41.5934 62.6719 39.4304 64.4596 36.9652 64.2522C35.712 64.1468 34.6218 63.546 33.8796 62.6638Z" fill="white" fill-opacity="0.65"/>
</g>
</svg>
