<svg width="200" height="48" viewBox="0 0 200 48" fill="none" xmlns="http://www.w3.org/2000/svg">
<path d="M13.75 47.2265H21.3695V33.6484H30.1704C38.7941 33.6484 44.6712 28.1261 44.6712 19.928V19.8711C44.6712 11.6445 38.7941 6.15063 30.1704 6.15063H13.75V47.2265ZM28.2803 12.1569C33.7439 12.1569 36.9335 14.975 36.9335 19.8995V19.9565C36.9335 24.881 33.7439 27.7276 28.2803 27.7276H21.3695V12.1569H28.2803Z" fill="white"/>
<path d="M115.323 37.2913H122.676V18.8171C122.676 15.145 125.157 12.4692 128.701 12.4692C132.127 12.4692 134.253 14.5757 134.253 17.9631V37.2913H141.4V18.6463C141.4 15.0027 143.822 12.4692 147.366 12.4692C150.969 12.4692 152.977 14.6042 152.977 18.3332V37.2913H160.331V16.5683C160.331 10.5336 156.285 6.49146 150.113 6.49146C145.594 6.49146 141.873 8.82564 140.367 12.5831H140.19C139.038 8.71177 135.878 6.49146 131.507 6.49146C127.372 6.49146 124.153 8.65484 122.824 11.9569H122.676V7.1177H115.323V37.2913Z" fill="white"/>
<path d="M88.2406 47.9999C94.7674 47.9999 98.4295 45.6372 100.822 39.0047L112.074 7.8064H104.336L96.9824 31.9452H96.7757L89.4515 7.8064H81.4185L92.6706 38.0084L92.2276 39.2324C91.2825 41.7659 89.7173 42.5345 86.9116 42.5345C85.878 42.5345 85.0215 42.3921 84.4604 42.2783V47.6867C85.3464 47.8291 86.823 47.9999 88.2406 47.9999Z" fill="white"/>
<path d="M4.2823 16.033C6.67449 16.033 8.53508 14.2112 8.53508 11.9054C8.53508 9.59973 6.67449 7.8064 4.2823 7.8064C1.89012 7.8064 0 9.59973 0 11.9054C0 14.2112 1.89012 16.033 4.2823 16.033ZM4.2823 36.9267C6.67449 36.9267 8.53508 35.1049 8.53508 32.7992C8.53508 30.522 6.67449 28.7002 4.2823 28.7002C1.89012 28.7002 0 30.522 0 32.7992C0 35.1049 1.89012 36.9267 4.2823 36.9267Z" fill="white"/>
<path d="M74.6642 32.3982C80.4488 26.5014 80.4682 19.8795 77.9389 15.8961L77.7843 15.6108L72.9185 20.5709L73.015 20.7544C73.9157 22.6944 73.5274 25.7472 70.9379 28.3868C67.5549 31.8355 63.2528 31.7927 59.4966 28.134L74.9918 12.3385L73.4122 10.7282C67.0936 4.28718 58.9617 4.00197 52.6341 10.4522C46.3066 16.9024 46.5784 25.4817 53.1734 32.2045L53.1932 32.2246C59.8475 39.0079 68.0233 39.1677 74.6642 32.3982ZM56.5472 14.3133C59.3038 11.5033 62.9672 11.1505 66.6603 14.1488L56.2814 24.7288C53.4806 21.0222 53.7906 17.1233 56.5472 14.3133Z" fill="white"/>
<path d="M189.997 32.3982C195.782 26.5014 195.801 19.8795 193.272 15.8961L193.117 15.6109L188.252 20.5709L188.348 20.7544C189.249 22.6944 188.86 25.7471 186.271 28.3868C182.888 31.8354 178.586 31.7927 174.83 28.134L190.325 12.3385L188.745 10.7282C182.427 4.28719 174.295 4.00197 167.967 10.4522C161.64 16.9024 161.911 25.4817 168.506 32.2045L168.526 32.2246C175.18 39.0079 183.356 39.1677 189.997 32.3982ZM171.88 14.3133C174.637 11.5033 178.3 11.1505 181.993 14.1488L171.614 24.7289C168.814 21.0222 169.124 17.1233 171.88 14.3133Z" fill="white"/>
</svg>
