<svg width="362" height="354" viewBox="0 0 362 354" fill="none" xmlns="http://www.w3.org/2000/svg">
<g clip-path="url(#clip0_509_401)">
<ellipse cx="156.605" cy="152.336" rx="156.605" ry="152.336" transform="matrix(-1 0 0 1 336.148 0)" fill="#F1F380"/>
<ellipse cx="156.605" cy="152.336" rx="156.605" ry="152.336" transform="matrix(-1 0 0 1 336.148 0)" fill="white" fill-opacity="0.65"/>
<path fill-rule="evenodd" clip-rule="evenodd" d="M245.8 170.623C226.273 161.638 214.635 185.201 224.456 198.321C236.44 214.331 242.579 232.753 245.998 238.303C248.881 242.986 256.781 254.4 266.294 249.139C275.048 244.297 270.277 225.293 270.277 225.293C270.277 225.293 269.89 181.706 245.8 170.623Z" fill="#B7EE81"/>
<path fill-rule="evenodd" clip-rule="evenodd" d="M245.8 170.623C226.273 161.638 214.635 185.201 224.456 198.321C236.44 214.331 242.579 232.753 245.998 238.303C248.881 242.986 256.781 254.4 266.294 249.139C275.048 244.297 270.277 225.293 270.277 225.293C270.277 225.293 269.89 181.706 245.8 170.623Z" fill="white" fill-opacity="0.2"/>
<path fill-rule="evenodd" clip-rule="evenodd" d="M234.743 246.142C242.251 254.701 253.086 271.919 259.875 265.889C263.989 262.234 258.489 244.927 243.434 235.51C230.628 227.5 227.234 237.582 234.743 246.142Z" fill="#B7EE81"/>
<path fill-rule="evenodd" clip-rule="evenodd" d="M234.743 246.142C242.251 254.701 253.086 271.919 259.875 265.889C263.989 262.234 258.489 244.927 243.434 235.51C230.628 227.5 227.234 237.582 234.743 246.142Z" fill="white" fill-opacity="0.2"/>
<path fill-rule="evenodd" clip-rule="evenodd" d="M304.535 245.48C311.174 236.768 313.597 224.265 306.188 221.059C299.083 217.985 287.315 225.554 281.864 240.119C276.414 254.685 273.269 265.157 278.601 266.978C287.349 269.966 295.767 256.987 304.535 245.48Z" fill="#B7EE81"/>
<path fill-rule="evenodd" clip-rule="evenodd" d="M304.535 245.48C311.174 236.768 313.597 224.265 306.188 221.059C299.083 217.985 287.315 225.554 281.864 240.119C276.414 254.685 273.269 265.157 278.601 266.978C287.349 269.966 295.767 256.987 304.535 245.48Z" fill="white" fill-opacity="0.2"/>
<path fill-rule="evenodd" clip-rule="evenodd" d="M306.593 186.744C303.738 184.875 300.145 184.448 296.868 185.47C292.294 186.895 285.352 191.138 278.482 203.318C269.513 219.219 264.844 236.652 265.767 247.695C266.37 254.916 275.516 258.029 280.633 252.764C282.983 250.346 285.469 246.618 287.901 240.963C297.691 218.207 306.844 203.946 307.935 202.514C310.848 198.694 312.93 190.892 306.593 186.744Z" fill="#B7EE81"/>
<path fill-rule="evenodd" clip-rule="evenodd" d="M306.593 186.744C303.738 184.875 300.145 184.448 296.868 185.47C292.294 186.895 285.352 191.138 278.482 203.318C269.513 219.219 264.844 236.652 265.767 247.695C266.37 254.916 275.516 258.029 280.633 252.764C282.983 250.346 285.469 246.618 287.901 240.963C297.691 218.207 306.844 203.946 307.935 202.514C310.848 198.694 312.93 190.892 306.593 186.744Z" fill="black" fill-opacity="0.2"/>
<path d="M287.563 247.966C287.459 247.869 287.293 247.873 287.194 247.975L287.102 248.072L287.041 248.137C286.92 248.269 286.779 248.427 286.62 248.611C286.169 249.134 285.667 249.76 285.126 250.489C283.583 252.566 282.041 255.046 280.603 257.925C276.495 266.143 274.031 275.906 274.031 287.18C274.031 287.321 274.148 287.434 274.292 287.434C274.437 287.434 274.553 287.321 274.553 287.18C274.553 275.986 276.998 266.298 281.072 258.147C282.497 255.296 284.024 252.841 285.549 250.786C286.051 250.11 286.519 249.524 286.942 249.029L287.02 248.937C287.158 248.777 287.282 248.638 287.39 248.519L287.488 248.414L287.572 248.325C287.671 248.224 287.667 248.063 287.563 247.966Z" fill="#2A84C6"/>
<path d="M287.563 247.966C287.459 247.869 287.293 247.873 287.194 247.975L287.102 248.072L287.041 248.137C286.92 248.269 286.779 248.427 286.62 248.611C286.169 249.134 285.667 249.76 285.126 250.489C283.583 252.566 282.041 255.046 280.603 257.925C276.495 266.143 274.031 275.906 274.031 287.18C274.031 287.321 274.148 287.434 274.292 287.434C274.437 287.434 274.553 287.321 274.553 287.18C274.553 275.986 276.998 266.298 281.072 258.147C282.497 255.296 284.024 252.841 285.549 250.786C286.051 250.11 286.519 249.524 286.942 249.029L287.02 248.937C287.158 248.777 287.282 248.638 287.39 248.519L287.488 248.414L287.572 248.325C287.671 248.224 287.667 248.063 287.563 247.966Z" fill="black" fill-opacity="0.35"/>
<path d="M250.564 251.27C250.478 251.158 250.314 251.135 250.199 251.218C250.083 251.302 250.06 251.461 250.146 251.574C251.935 253.904 253.585 256.409 255.103 259.064C258.309 264.675 260.788 270.688 262.627 276.702C263.271 278.806 263.789 280.76 264.192 282.514L264.247 282.755C264.346 283.191 264.431 283.59 264.505 283.948L264.57 284.275C264.587 284.362 264.602 284.441 264.616 284.514L264.652 284.711C264.676 284.85 264.811 284.943 264.953 284.92C265.095 284.896 265.191 284.765 265.167 284.627L265.119 284.366C265.108 284.308 265.096 284.246 265.083 284.18L265.056 284.043C264.961 283.57 264.844 283.021 264.701 282.403C264.296 280.639 263.775 278.673 263.127 276.557C261.278 270.51 258.786 264.463 255.559 258.818C254.03 256.143 252.367 253.619 250.564 251.27Z" fill="#2A84C6"/>
<path d="M250.564 251.27C250.478 251.158 250.314 251.135 250.199 251.218C250.083 251.302 250.06 251.461 250.146 251.574C251.935 253.904 253.585 256.409 255.103 259.064C258.309 264.675 260.788 270.688 262.627 276.702C263.271 278.806 263.789 280.76 264.192 282.514L264.247 282.755C264.346 283.191 264.431 283.59 264.505 283.948L264.57 284.275C264.587 284.362 264.602 284.441 264.616 284.514L264.652 284.711C264.676 284.85 264.811 284.943 264.953 284.92C265.095 284.896 265.191 284.765 265.167 284.627L265.119 284.366C265.108 284.308 265.096 284.246 265.083 284.18L265.056 284.043C264.961 283.57 264.844 283.021 264.701 282.403C264.296 280.639 263.775 278.673 263.127 276.557C261.278 270.51 258.786 264.463 255.559 258.818C254.03 256.143 252.367 253.619 250.564 251.27Z" fill="black" fill-opacity="0.35"/>
<path d="M242.353 191.905C242.249 192.002 242.246 192.162 242.345 192.264L242.41 192.33C242.464 192.387 242.528 192.456 242.602 192.536L242.768 192.718C242.921 192.887 243.089 193.077 243.271 193.287L243.34 193.367C244.136 194.294 245.023 195.408 245.98 196.71C248.715 200.435 251.451 204.92 254.005 210.169C258.256 218.907 261.567 228.871 263.573 240.071C266.008 253.669 266.412 268.521 264.418 284.639C264.401 284.779 264.503 284.905 264.646 284.922C264.789 284.938 264.919 284.839 264.937 284.7C266.936 268.533 266.531 253.63 264.087 239.984C262.073 228.738 258.748 218.73 254.477 209.952C251.909 204.674 249.157 200.164 246.405 196.415L246.191 196.126C245.308 194.936 244.485 193.908 243.74 193.041L243.535 192.804C243.379 192.626 243.235 192.464 243.102 192.318L242.991 192.197C242.928 192.128 242.871 192.068 242.821 192.015L242.722 191.912C242.623 191.811 242.457 191.808 242.353 191.905Z" fill="#2A84C6"/>
<path d="M242.353 191.905C242.249 192.002 242.246 192.162 242.345 192.264L242.41 192.33C242.464 192.387 242.528 192.456 242.602 192.536L242.768 192.718C242.921 192.887 243.089 193.077 243.271 193.287L243.34 193.367C244.136 194.294 245.023 195.408 245.98 196.71C248.715 200.435 251.451 204.92 254.005 210.169C258.256 218.907 261.567 228.871 263.573 240.071C266.008 253.669 266.412 268.521 264.418 284.639C264.401 284.779 264.503 284.905 264.646 284.922C264.789 284.938 264.919 284.839 264.937 284.7C266.936 268.533 266.531 253.63 264.087 239.984C262.073 228.738 258.748 218.73 254.477 209.952C251.909 204.674 249.157 200.164 246.405 196.415L246.191 196.126C245.308 194.936 244.485 193.908 243.74 193.041L243.535 192.804C243.379 192.626 243.235 192.464 243.102 192.318L242.991 192.197C242.928 192.128 242.871 192.068 242.821 192.015L242.722 191.912C242.623 191.811 242.457 191.808 242.353 191.905Z" fill="black" fill-opacity="0.35"/>
<path d="M284.438 220.164C284.314 220.092 284.154 220.13 284.079 220.25L284.031 220.328C283.993 220.392 283.947 220.468 283.895 220.556L283.779 220.754C283.658 220.961 283.525 221.195 283.379 221.455L283.245 221.697C282.749 222.595 282.205 223.635 281.624 224.813L281.545 224.975C279.649 228.839 277.754 233.358 275.985 238.493C271.032 252.877 268.018 269.204 267.905 287.178C267.904 287.319 268.02 287.433 268.165 287.434C268.309 287.435 268.426 287.322 268.427 287.181C268.54 269.263 271.544 252.989 276.48 238.655C278.242 233.539 280.129 229.039 282.016 225.194L282.174 224.874C282.748 223.716 283.284 222.695 283.772 221.817L283.838 221.698C283.998 221.411 284.143 221.157 284.272 220.937L284.432 220.666L284.525 220.513C284.6 220.393 284.561 220.237 284.438 220.164Z" fill="#2A84C6"/>
<path d="M284.438 220.164C284.314 220.092 284.154 220.13 284.079 220.25L284.031 220.328C283.993 220.392 283.947 220.468 283.895 220.556L283.779 220.754C283.658 220.961 283.525 221.195 283.379 221.455L283.245 221.697C282.749 222.595 282.205 223.635 281.624 224.813L281.545 224.975C279.649 228.839 277.754 233.358 275.985 238.493C271.032 252.877 268.018 269.204 267.905 287.178C267.904 287.319 268.02 287.433 268.165 287.434C268.309 287.435 268.426 287.322 268.427 287.181C268.54 269.263 271.544 252.989 276.48 238.655C278.242 233.539 280.129 229.039 282.016 225.194L282.174 224.874C282.748 223.716 283.284 222.695 283.772 221.817L283.838 221.698C283.998 221.411 284.143 221.157 284.272 220.937L284.432 220.666L284.525 220.513C284.6 220.393 284.561 220.237 284.438 220.164Z" fill="black" fill-opacity="0.35"/>
<path fill-rule="evenodd" clip-rule="evenodd" d="M300.027 195.821C299.93 196.944 300.788 197.932 301.943 198.026C303.098 198.12 304.113 197.286 304.21 196.162C304.307 195.038 303.449 194.051 302.294 193.957C301.139 193.863 300.124 194.697 300.027 195.821Z" fill="white"/>
<path fill-rule="evenodd" clip-rule="evenodd" d="M282.2 204.538C282.103 205.661 282.961 206.648 284.116 206.743C285.272 206.837 286.286 206.002 286.383 204.879C286.48 203.755 285.622 202.768 284.467 202.674C283.312 202.58 282.297 203.414 282.2 204.538Z" fill="white"/>
<path fill-rule="evenodd" clip-rule="evenodd" d="M285.188 227.746C285.077 229.033 286.06 230.163 287.382 230.271C288.705 230.379 289.867 229.423 289.978 228.137C290.089 226.85 289.107 225.719 287.784 225.611C286.461 225.503 285.299 226.459 285.188 227.746Z" fill="white"/>
<path fill-rule="evenodd" clip-rule="evenodd" d="M230.433 193.061C230.433 194.887 231.955 196.368 233.832 196.368C235.71 196.368 237.231 194.887 237.231 193.061C237.231 191.235 235.71 189.755 233.832 189.755C231.955 189.755 230.433 191.235 230.433 193.061Z" fill="white"/>
<path fill-rule="evenodd" clip-rule="evenodd" d="M257.797 203.159C257.797 204.985 259.318 206.465 261.196 206.465C263.073 206.465 264.595 204.985 264.595 203.159C264.595 201.333 263.073 199.853 261.196 199.853C259.318 199.853 257.797 201.333 257.797 203.159Z" fill="white"/>
<path fill-rule="evenodd" clip-rule="evenodd" d="M248.934 225.603C248.934 226.366 249.571 226.985 250.355 226.985C251.14 226.985 251.776 226.366 251.776 225.603C251.776 224.839 251.14 224.221 250.355 224.221C249.571 224.221 248.934 224.839 248.934 225.603Z" fill="white"/>
<path fill-rule="evenodd" clip-rule="evenodd" d="M238.699 243.277C238.699 244.405 239.639 245.319 240.798 245.319C241.957 245.319 242.896 244.405 242.896 243.277C242.896 242.15 241.957 241.236 240.798 241.236C239.639 241.236 238.699 242.15 238.699 243.277Z" fill="white"/>
<path fill-rule="evenodd" clip-rule="evenodd" d="M257.88 310.793H278.326C281.318 309.942 282.809 309.098 284.514 306.749L293.777 276.729C293.777 274.504 291.906 272.685 289.619 272.685H247.317C245.03 272.685 243.159 274.504 243.159 276.729L252.341 306.749C253.832 309.942 254.898 310.363 257.88 310.793Z" fill="#2A84C6"/>
<path fill-rule="evenodd" clip-rule="evenodd" d="M257.88 310.793H278.326C281.318 309.942 282.809 309.098 284.514 306.749L293.777 276.729C293.777 274.504 291.906 272.685 289.619 272.685H247.317C245.03 272.685 243.159 274.504 243.159 276.729L252.341 306.749C253.832 309.942 254.898 310.363 257.88 310.793Z" fill="black" fill-opacity="0.35"/>
<mask id="mask0_509_401" style="mask-type:alpha" maskUnits="userSpaceOnUse" x="-14" y="46" width="302" height="294">
<ellipse cx="150.374" cy="146.275" rx="150.374" ry="146.275" transform="matrix(-1 0 0 1 287.534 46.6841)" fill="#C4C4C4"/>
</mask>
<g mask="url(#mask0_509_401)">
<path fill-rule="evenodd" clip-rule="evenodd" d="M249.812 207.16C254.206 197.399 249.633 186.021 239.597 181.748L182.124 157.271C172.088 152.997 160.393 157.445 155.999 167.207C151.606 176.968 156.18 188.345 166.214 192.619L223.69 217.095C233.723 221.369 245.419 216.92 249.812 207.16Z" fill="#E4EBF7"/>
<path fill-rule="evenodd" clip-rule="evenodd" d="M9.428 236.24C1.34194 229.05 0.781242 216.846 8.17283 208.983L54.3524 159.849C61.744 151.986 74.2901 151.439 82.3747 158.629C90.4579 165.818 91.0201 178.022 83.6299 185.886L37.4489 235.019C30.0573 242.884 17.5126 243.43 9.428 236.24Z" fill="#E4EBF7"/>
<path fill-rule="evenodd" clip-rule="evenodd" d="M92.9957 297.311C92.9957 297.311 85.8233 282.747 92.5346 275.816C98.6113 269.538 105.781 274.679 105.781 274.679C105.781 274.679 113.74 278.693 120.154 286.111C124.381 290.999 131.449 301.088 129.108 303.595C126.059 306.862 118.742 294.993 115.888 296.605C112.958 298.261 114.282 300.822 115.324 307.611C115.976 311.854 118.334 315.786 118.18 319.487C117.881 326.717 101.882 320.031 92.9957 297.311Z" fill="#FFC999"/>
<path d="M108.793 301.568C108.513 301.539 108.262 301.736 108.232 302.009L108.222 302.127C108.218 302.177 108.214 302.239 108.209 302.312C108.118 303.903 108.266 306.045 108.844 308.575C109.711 312.371 111.39 316.227 114.07 319.977C114.231 320.202 114.548 320.257 114.779 320.101C115.01 319.945 115.067 319.636 114.907 319.411C112.305 315.771 110.678 312.034 109.838 308.36C109.315 306.067 109.158 304.115 109.214 302.638L109.227 302.367C109.234 302.239 109.241 302.153 109.246 302.114C109.275 301.841 109.073 301.597 108.793 301.568Z" fill="#DD936F"/>
<path d="M102.738 301.582L102.655 301.583C102.375 301.61 102.17 301.852 102.197 302.124C102.537 305.538 103.554 308.87 105.036 312.019C105.682 313.392 106.375 314.639 107.068 315.736L107.351 316.176C107.443 316.315 107.531 316.447 107.616 316.571L107.872 316.937C107.929 317.016 107.973 317.076 108.003 317.115C108.171 317.334 108.49 317.381 108.716 317.218C108.942 317.055 108.989 316.744 108.822 316.524L108.583 316.193C108.388 315.915 108.171 315.589 107.936 315.217C107.263 314.153 106.59 312.941 105.962 311.606C104.524 308.552 103.539 305.323 103.211 302.029C103.187 301.784 102.983 301.598 102.738 301.582Z" fill="#DD936F"/>
<path d="M97.3761 298.693C97.1229 298.691 96.9115 298.869 96.8702 299.104L96.8628 299.185C96.8603 299.859 96.9997 301.076 97.4164 302.792C98.0991 305.604 99.3295 308.822 101.242 312.399C101.372 312.642 101.68 312.736 101.929 312.61C102.179 312.484 102.276 312.185 102.146 311.942C100.272 308.437 99.0714 305.296 98.4081 302.564C98.1759 301.608 98.0275 300.772 97.946 300.06L97.904 299.636C97.8908 299.474 97.8843 299.346 97.8824 299.254L97.8818 299.191L97.8757 299.112C97.8381 298.876 97.6293 298.695 97.3761 298.693Z" fill="#DD936F"/>
<path fill-rule="evenodd" clip-rule="evenodd" d="M106.707 265.179L85.8644 291.278L11.0379 238.246C2.38685 231.709 0.822845 219.588 7.5413 211.173C14.2626 202.758 26.7233 201.236 35.3729 207.771L106.707 265.179Z" fill="#E4EBF7"/>
<path d="M46.4591 216.671C46.154 216.43 45.7059 216.475 45.4581 216.771C45.2329 217.041 45.2508 217.426 45.4851 217.675L45.5618 217.745L106.114 265.588L85.698 291.154C85.4789 291.428 85.5054 291.812 85.7452 292.056L85.8235 292.125C86.1056 292.338 86.5007 292.312 86.7513 292.079L86.8219 292.003L107.665 265.903C107.88 265.633 107.858 265.255 107.627 265.011L107.551 264.941L46.4591 216.671Z" fill="#1443BD"/>
<path d="M46.4591 216.671C46.154 216.43 45.7059 216.475 45.4581 216.771C45.2329 217.041 45.2508 217.426 45.4851 217.675L45.5618 217.745L106.114 265.588L85.698 291.154C85.4789 291.428 85.5054 291.812 85.7452 292.056L85.8235 292.125C86.1056 292.338 86.5007 292.312 86.7513 292.079L86.8219 292.003L107.665 265.903C107.88 265.633 107.858 265.255 107.627 265.011L107.551 264.941L46.4591 216.671Z" fill="white" fill-opacity="0.2"/>
<path d="M94.2491 258.109C93.9669 257.896 93.5719 257.922 93.3212 258.155L93.2506 258.231L75.5515 280.393C75.3104 280.695 75.3666 281.13 75.6769 281.364C75.959 281.577 76.3541 281.551 76.6048 281.318L76.6753 281.242L94.3744 259.081C94.6155 258.779 94.5594 258.344 94.2491 258.109Z" fill="#1443BD"/>
<path d="M94.2491 258.109C93.9669 257.896 93.5719 257.922 93.3212 258.155L93.2506 258.231L75.5515 280.393C75.3104 280.695 75.3666 281.13 75.6769 281.364C75.959 281.577 76.3541 281.551 76.6048 281.318L76.6753 281.242L94.3744 259.081C94.6155 258.779 94.5594 258.344 94.2491 258.109Z" fill="white" fill-opacity="0.2"/>
<path fill-rule="evenodd" clip-rule="evenodd" d="M199.255 94.8027C199.255 94.8027 208.671 108.102 203.154 115.967C198.156 123.09 190.251 119.096 190.251 119.096C190.251 119.096 181.746 116.338 174.221 109.982C169.264 105.794 160.667 96.9 162.577 94.0704C165.066 90.3799 174.194 100.996 176.756 98.9695C179.385 96.8903 177.665 94.5618 175.549 88.0127C174.225 83.9207 171.267 80.3935 170.824 76.7168C169.962 69.5281 186.838 73.7087 199.255 94.8027Z" fill="#FFC999"/>
<path d="M174.773 75.6374C174.596 75.4577 174.303 75.4516 174.118 75.6237C173.933 75.7959 173.927 76.0811 174.104 76.2608C174.247 76.4064 174.389 76.5526 174.529 76.6995C177.833 80.1738 180.032 83.893 181.339 87.6096C181.795 88.9076 182.108 90.1115 182.302 91.1898C182.353 91.4714 182.392 91.7287 182.423 91.9601L182.468 92.3579C182.475 92.432 182.479 92.4858 182.48 92.5184C182.493 92.767 182.711 92.9583 182.966 92.9458C183.222 92.9332 183.419 92.7216 183.406 92.4731L183.391 92.2815L183.371 92.0854C183.337 91.7809 183.286 91.4292 183.214 91.0341C183.012 89.9109 182.688 88.6617 182.216 87.318C180.869 83.4867 178.604 79.658 175.209 76.0875C175.065 75.9368 174.92 75.7868 174.773 75.6374Z" fill="#1443BD"/>
<path d="M174.773 75.6374C174.596 75.4577 174.303 75.4516 174.118 75.6237C173.933 75.7959 173.927 76.0811 174.104 76.2608C174.247 76.4064 174.389 76.5526 174.529 76.6995C177.833 80.1738 180.032 83.893 181.339 87.6096C181.795 88.9076 182.108 90.1115 182.302 91.1898C182.353 91.4714 182.392 91.7287 182.423 91.9601L182.468 92.3579C182.475 92.432 182.479 92.4858 182.48 92.5184C182.493 92.767 182.711 92.9583 182.966 92.9458C183.222 92.9332 183.419 92.7216 183.406 92.4731L183.391 92.2815L183.371 92.0854C183.337 91.7809 183.286 91.4292 183.214 91.0341C183.012 89.9109 182.688 88.6617 182.216 87.318C180.869 83.4867 178.604 79.658 175.209 76.0875C175.065 75.9368 174.92 75.7868 174.773 75.6374Z" fill="white" fill-opacity="0.2"/>
<path d="M181.243 77.5302C181.051 77.347 180.743 77.3497 180.554 77.5362C180.366 77.7227 180.369 78.0225 180.561 78.2057L180.765 78.4097C180.812 78.4574 180.864 78.5118 180.923 78.5728L181.292 78.9684C181.484 79.179 181.688 79.4088 181.901 79.6572C182.916 80.8421 183.932 82.1999 184.879 83.708C186.461 86.2233 187.689 88.8978 188.43 91.6855C188.497 91.9387 188.762 92.0909 189.023 92.0254C189.283 91.96 189.439 91.7018 189.372 91.4486C188.606 88.5636 187.338 85.8047 185.71 83.2141C184.736 81.6645 183.693 80.2697 182.648 79.051C182.355 78.7091 182.079 78.4006 181.823 78.1269L181.468 77.7545C181.418 77.7033 181.374 77.659 181.336 77.6216L181.243 77.5302Z" fill="#DD936F"/>
<path fill-rule="evenodd" clip-rule="evenodd" d="M178.09 124.141L209.07 110.569L249.664 191.508C254.162 201.225 249.712 212.648 239.725 217.023C229.736 221.398 217.993 217.07 213.494 207.353L178.09 124.141Z" fill="#E4EBF7"/>
<path d="M209.512 109.842C209.364 109.522 208.998 109.365 208.662 109.462L208.571 109.495L177.592 123.067C177.274 123.206 177.111 123.545 177.193 123.865L177.225 123.96L204.039 187.702C204.188 188.055 204.604 188.225 204.968 188.08C205.301 187.947 205.475 187.597 205.387 187.267L205.357 187.177L178.803 124.054L209.156 110.757C209.484 110.613 209.646 110.257 209.546 109.93L209.512 109.842Z" fill="#1443BD"/>
<path d="M209.512 109.842C209.364 109.522 208.998 109.365 208.662 109.462L208.571 109.495L177.592 123.067C177.274 123.206 177.111 123.545 177.193 123.865L177.225 123.96L204.039 187.702C204.188 188.055 204.604 188.225 204.968 188.08C205.301 187.947 205.475 187.597 205.387 187.267L205.357 187.177L178.803 124.054L209.156 110.757C209.484 110.613 209.646 110.257 209.546 109.93L209.512 109.842Z" fill="white" fill-opacity="0.2"/>
<path d="M214.174 122.092C214.04 121.766 213.681 121.594 213.341 121.677L213.249 121.706L185.201 132.62C184.837 132.762 184.659 133.165 184.805 133.52C184.939 133.845 185.298 134.017 185.638 133.934L185.73 133.905L213.778 122.991C214.143 122.849 214.32 122.446 214.174 122.092Z" fill="#1443BD"/>
<path d="M214.174 122.092C214.04 121.766 213.681 121.594 213.341 121.677L213.249 121.706L185.201 132.62C184.837 132.762 184.659 133.165 184.805 133.52C184.939 133.845 185.298 134.017 185.638 133.934L185.73 133.905L213.778 122.991C214.143 122.849 214.32 122.446 214.174 122.092Z" fill="white" fill-opacity="0.2"/>
<path fill-rule="evenodd" clip-rule="evenodd" d="M174.793 121.874L195.309 108.561C197.007 107.459 197.467 105.228 196.334 103.575L166.882 60.6255C165.75 58.974 163.453 58.5283 161.756 59.6302L141.239 72.9417C139.541 74.0436 139.081 76.2765 140.214 77.928L169.665 120.877C170.798 122.53 173.095 122.976 174.793 121.874Z" fill="#1443BD"/>
<path fill-rule="evenodd" clip-rule="evenodd" d="M174.793 121.874L195.309 108.561C197.007 107.459 197.467 105.228 196.334 103.575L166.882 60.6255C165.75 58.974 163.453 58.5283 161.756 59.6302L141.239 72.9417C139.541 74.0436 139.081 76.2765 140.214 77.928L169.665 120.877C170.798 122.53 173.095 122.976 174.793 121.874Z" fill="black" fill-opacity="0.5"/>
<path fill-rule="evenodd" clip-rule="evenodd" d="M122.082 411.033L135.299 335.497C137.826 319.842 125.565 305.619 109.279 305.311C95.1815 305.044 83.2701 315.42 81.995 329.079L74.834 405.838C74.834 405.838 71.5609 427.595 95.1573 429.98C118.106 432.3 122.082 411.033 122.082 411.033Z" fill="#1443BD"/>
<path fill-rule="evenodd" clip-rule="evenodd" d="M122.082 411.033L135.299 335.497C137.826 319.842 125.565 305.619 109.279 305.311C95.1815 305.044 83.2701 315.42 81.995 329.079L74.834 405.838C74.834 405.838 71.5609 427.595 95.1573 429.98C118.106 432.3 122.082 411.033 122.082 411.033Z" fill="black" fill-opacity="0.5"/>
<path fill-rule="evenodd" clip-rule="evenodd" d="M141.519 406.699L131.967 330.643C130.2 314.889 143.134 301.243 159.419 301.68C173.513 302.058 184.909 312.969 185.523 326.671L188.965 403.67C188.965 403.67 191.184 425.553 167.498 426.857C144.462 428.125 141.519 406.699 141.519 406.699Z" fill="#1443BD"/>
<path fill-rule="evenodd" clip-rule="evenodd" d="M141.519 406.699L131.967 330.643C130.2 314.889 143.134 301.243 159.419 301.68C173.513 302.058 184.909 312.969 185.523 326.671L188.965 403.67C188.965 403.67 191.184 425.553 167.498 426.857C144.462 428.125 141.519 406.699 141.519 406.699Z" fill="black" fill-opacity="0.5"/>
<path fill-rule="evenodd" clip-rule="evenodd" d="M128.005 344.883L86.7837 313.752C83.9204 311.59 82.4546 308.11 82.9356 304.614L88.4402 264.543L185.692 267.566L185.503 309.023C185.493 311.601 184.447 314.062 182.597 315.909C176.927 321.572 162.76 332.784 138.242 344.71C134.914 346.328 130.853 347.211 128.005 344.883Z" fill="#1443BD"/>
<path fill-rule="evenodd" clip-rule="evenodd" d="M128.005 344.883L86.7837 313.752C83.9204 311.59 82.4546 308.11 82.9356 304.614L88.4402 264.543L185.692 267.566L185.503 309.023C185.493 311.601 184.447 314.062 182.597 315.909C176.927 321.572 162.76 332.784 138.242 344.71C134.914 346.328 130.853 347.211 128.005 344.883Z" fill="black" fill-opacity="0.5"/>
<path d="M90.6381 276.081C90.3369 276.07 90.0837 276.299 90.0723 276.592C90.0628 276.856 90.2523 277.082 90.5099 277.132L90.5981 277.142L178.689 280.28C178.991 280.291 179.244 280.062 179.255 279.769C179.265 279.505 179.075 279.28 178.818 279.229L178.729 279.219L90.6381 276.081Z" fill="#1443BD"/>
<path d="M90.6381 276.081C90.3369 276.07 90.0837 276.299 90.0723 276.592C90.0628 276.856 90.2523 277.082 90.5099 277.132L90.5981 277.142L178.689 280.28C178.991 280.291 179.244 280.062 179.255 279.769C179.265 279.505 179.075 279.28 178.818 279.229L178.729 279.219L90.6381 276.081Z" fill="black" fill-opacity="0.5"/>
<path d="M141.531 266.193C141.26 266.183 141.028 266.368 140.976 266.618L140.966 266.704L140.526 278.389C140.515 278.682 140.75 278.928 141.051 278.939C141.322 278.948 141.554 278.764 141.606 278.513L141.617 278.428L142.056 266.743C142.067 266.45 141.832 266.203 141.531 266.193Z" fill="#1443BD"/>
<path d="M141.531 266.193C141.26 266.183 141.028 266.368 140.976 266.618L140.966 266.704L140.526 278.389C140.515 278.682 140.75 278.928 141.051 278.939C141.322 278.948 141.554 278.764 141.606 278.513L141.617 278.428L142.056 266.743C142.067 266.45 141.832 266.203 141.531 266.193Z" fill="black" fill-opacity="0.5"/>
<path fill-rule="evenodd" clip-rule="evenodd" d="M105.619 94.7582C105.619 94.7582 102.355 66.1086 139.273 68.3304C159.829 70.9218 158.551 104.223 158.551 104.223C158.551 104.223 159.824 111.249 156.949 118.387C153.731 126.381 145.802 128.902 135.423 129.575C116.194 128.478 108.683 118.009 108.683 118.009C108.683 118.009 95.407 118.673 96.9069 102.48C98.4026 87.4601 105.619 94.7582 105.619 94.7582Z" fill="#FFC999"/>
<path fill-rule="evenodd" clip-rule="evenodd" d="M109.16 75.124C109.136 82.483 102.985 88.4299 95.4217 88.4078C87.8551 88.3856 81.7415 82.4013 81.7642 75.0423C81.7884 67.6834 87.9391 61.7364 95.5043 61.7598C103.069 61.7821 109.183 67.765 109.16 75.124Z" fill="#1443BD"/>
<path fill-rule="evenodd" clip-rule="evenodd" d="M109.16 75.124C109.136 82.483 102.985 88.4299 95.4217 88.4078C87.8551 88.3856 81.7415 82.4013 81.7642 75.0423C81.7884 67.6834 87.9391 61.7364 95.5043 61.7598C103.069 61.7821 109.183 67.765 109.16 75.124Z" fill="black" fill-opacity="0.5"/>
<path fill-rule="evenodd" clip-rule="evenodd" d="M158.37 105.258C158.37 105.258 162.894 97.6844 165.622 88.6463C168.35 79.6081 150.708 61.464 148.313 59.9981C145.916 58.5321 144.721 57.0689 128.204 62.8566C79.2183 64.6175 90.6999 108.305 90.6999 108.305C90.6999 108.305 84.9847 112.303 88.2507 123.11C92.1144 133.917 107.448 134.339 107.448 134.339L108.035 117.451C108.035 117.451 102.85 117.815 98.9695 111.968C95.0873 106.12 98.4799 99.0383 100.882 98.461C103.024 96.9092 108.363 97.7038 108.345 103.94C108.335 107.08 114.501 100.061 116.943 88.1147C134.05 84.9557 138.369 73.3912 138.369 73.3912C138.369 73.3912 138.936 84.4823 136.222 89.1432C145.229 86.5435 150.043 81.8895 148.559 76.924C158.745 81.3302 158.37 105.258 158.37 105.258Z" fill="#1443BD"/>
<path fill-rule="evenodd" clip-rule="evenodd" d="M158.37 105.258C158.37 105.258 162.894 97.6844 165.622 88.6463C168.35 79.6081 150.708 61.464 148.313 59.9981C145.916 58.5321 144.721 57.0689 128.204 62.8566C79.2183 64.6175 90.6999 108.305 90.6999 108.305C90.6999 108.305 84.9847 112.303 88.2507 123.11C92.1144 133.917 107.448 134.339 107.448 134.339L108.035 117.451C108.035 117.451 102.85 117.815 98.9695 111.968C95.0873 106.12 98.4799 99.0383 100.882 98.461C103.024 96.9092 108.363 97.7038 108.345 103.94C108.335 107.08 114.501 100.061 116.943 88.1147C134.05 84.9557 138.369 73.3912 138.369 73.3912C138.369 73.3912 138.936 84.4823 136.222 89.1432C145.229 86.5435 150.043 81.8895 148.559 76.924C158.745 81.3302 158.37 105.258 158.37 105.258Z" fill="black" fill-opacity="0.5"/>
<path fill-rule="evenodd" clip-rule="evenodd" d="M107.441 136.418L107.953 111.236L141.705 112.095C141.705 112.095 141.522 129.289 142.168 136.266C164.105 148.087 114.393 156.773 102.948 143.487C99.4119 139.383 107.441 136.418 107.441 136.418Z" fill="#FFC999"/>
<path fill-rule="evenodd" clip-rule="evenodd" d="M139.054 99.7885C138.4 106.169 133.269 110.896 127.586 110.347C121.907 109.797 117.831 104.18 118.483 97.7992C119.136 91.4176 124.269 86.6902 129.95 87.2397C135.63 87.7893 139.705 93.4082 139.054 99.7885Z" fill="white"/>
<path d="M130.021 86.5514C136.115 87.1412 140.45 93.1168 139.762 99.8573C139.072 106.599 133.613 111.625 127.516 111.036C121.421 110.446 117.086 104.472 117.775 97.7312C118.455 91.0897 123.762 86.1121 129.748 86.5287L130.021 86.5514ZM119.191 97.8682C118.576 103.888 122.393 109.149 127.657 109.658C132.923 110.168 137.729 105.742 138.346 99.7203C138.961 93.7001 135.144 88.4383 129.88 87.9289C124.614 87.4196 119.807 91.8464 119.191 97.8682Z" fill="#1443BD"/>
<path d="M130.021 86.5514C136.115 87.1412 140.45 93.1168 139.762 99.8573C139.072 106.599 133.613 111.625 127.516 111.036C121.421 110.446 117.086 104.472 117.775 97.7312C118.455 91.0897 123.762 86.1121 129.748 86.5287L130.021 86.5514ZM119.191 97.8682C118.576 103.888 122.393 109.149 127.657 109.658C132.923 110.168 137.729 105.742 138.346 99.7203C138.961 93.7001 135.144 88.4383 129.88 87.9289C124.614 87.4196 119.807 91.8464 119.191 97.8682Z" fill="black" fill-opacity="0.5"/>
<path fill-rule="evenodd" clip-rule="evenodd" d="M162.032 98.9988C161.38 105.379 156.54 110.134 151.222 109.621C145.904 109.106 142.121 103.516 142.773 97.1355C143.426 90.7553 148.265 85.9988 153.583 86.5138C158.902 87.0287 162.685 92.6185 162.032 98.9988Z" fill="white"/>
<path d="M153.653 85.8255C159.401 86.3818 163.429 92.3352 162.74 99.0679C162.052 105.8 156.898 110.865 151.152 110.31C145.406 109.753 141.377 103.8 142.065 97.0676C142.744 90.4361 147.753 85.423 153.393 85.804L153.653 85.8255ZM143.481 97.2046C142.865 103.233 146.402 108.459 151.293 108.932C156.183 109.405 160.708 104.959 161.324 98.9309C161.941 92.9027 158.404 87.6765 153.513 87.203C148.623 86.7295 144.098 91.1758 143.481 97.2046Z" fill="#1443BD"/>
<path d="M153.653 85.8255C159.401 86.3818 163.429 92.3352 162.74 99.0679C162.052 105.8 156.898 110.865 151.152 110.31C145.406 109.753 141.377 103.8 142.065 97.0676C142.744 90.4361 147.753 85.423 153.393 85.804L153.653 85.8255ZM143.481 97.2046C142.865 103.233 146.402 108.459 151.293 108.932C156.183 109.405 160.708 104.959 161.324 98.9309C161.941 92.9027 158.404 87.6765 153.513 87.203C148.623 86.7295 144.098 91.1758 143.481 97.2046Z" fill="black" fill-opacity="0.5"/>
<path d="M141.565 101.377C141.382 101.185 141.074 101.174 140.877 101.351C140.702 101.509 140.673 101.764 140.797 101.953L140.851 102.02L144.237 105.572L140.538 108.708C140.358 108.86 140.321 109.114 140.439 109.306L140.491 109.375C140.648 109.551 140.908 109.586 141.106 109.471L141.178 109.421L145.255 105.965C145.439 105.809 145.473 105.548 145.347 105.355L145.292 105.286L141.565 101.377Z" fill="#DD936F"/>
<path d="M132.606 111.305C132.5 111.673 132.721 112.055 133.099 112.158L133.785 112.333C134.317 112.462 134.895 112.591 135.501 112.712C136.45 112.901 137.377 113.051 138.252 113.148C139.737 113.313 140.986 113.316 141.944 113.112C142.328 113.031 142.571 112.662 142.487 112.288C142.403 111.915 142.024 111.678 141.64 111.76C140.866 111.925 139.756 111.921 138.413 111.773C137.584 111.681 136.697 111.537 135.786 111.356C135.348 111.269 134.924 111.177 134.523 111.083L133.484 110.826C133.106 110.722 132.713 110.937 132.606 111.305Z" fill="#F56D7E"/>
<path fill-rule="evenodd" clip-rule="evenodd" d="M139.22 96.7558C139.22 96.7558 141.027 95.5916 142.626 96.7655L139.22 96.7558Z" fill="white"/>
<path d="M139.22 96.7558C139.22 96.7558 141.027 95.5916 142.626 96.7655" stroke="#1443BD" stroke-width="1.5" stroke-linecap="round" stroke-linejoin="round"/>
<path d="M139.22 96.7558C139.22 96.7558 141.027 95.5916 142.626 96.7655" stroke="black" stroke-opacity="0.5" stroke-width="1.5" stroke-linecap="round" stroke-linejoin="round"/>
<path d="M124.146 127.173C123.885 127.111 123.621 127.267 123.558 127.521C123.494 127.775 123.654 128.031 123.916 128.093C125.409 128.447 127.113 128.727 128.99 128.942C132.541 129.348 136.219 129.485 139.32 129.467L140.333 129.455C140.602 129.448 140.814 129.231 140.808 128.97C140.801 128.708 140.578 128.502 140.309 128.508L139.963 128.514C136.771 128.555 132.859 128.431 129.103 128.002C127.264 127.791 125.597 127.517 124.146 127.173Z" fill="#DD936F"/>
<path fill-rule="evenodd" clip-rule="evenodd" d="M133.206 98.1235C133.2 99.7016 132.479 100.979 131.593 100.978C130.708 100.975 129.995 99.6919 130 98.1138C130.005 96.5357 130.727 95.258 131.612 95.2607C132.497 95.2635 133.21 96.5454 133.206 98.1235Z" fill="#1443BD"/>
<path fill-rule="evenodd" clip-rule="evenodd" d="M133.206 98.1235C133.2 99.7016 132.479 100.979 131.593 100.978C130.708 100.975 129.995 99.6919 130 98.1138C130.005 96.5357 130.727 95.258 131.612 95.2607C132.497 95.2635 133.21 96.5454 133.206 98.1235Z" fill="black" fill-opacity="0.5"/>
<path fill-rule="evenodd" clip-rule="evenodd" d="M154.041 98.4448C154.035 100.023 153.314 101.301 152.429 101.299C151.543 101.296 150.83 100.013 150.835 98.4351C150.84 96.857 151.562 95.5793 152.447 95.582C153.332 95.5848 154.045 96.8667 154.041 98.4448Z" fill="#1443BD"/>
<path fill-rule="evenodd" clip-rule="evenodd" d="M154.041 98.4448C154.035 100.023 153.314 101.301 152.429 101.299C151.543 101.296 150.83 100.013 150.835 98.4351C150.84 96.857 151.562 95.5793 152.447 95.582C153.332 95.5848 154.045 96.8667 154.041 98.4448Z" fill="black" fill-opacity="0.5"/>
<path d="M118.47 97.1069L109.151 97.2745C108.758 97.2815 108.446 97.5971 108.453 97.9793C108.46 98.3296 108.733 98.6144 109.081 98.6539L109.178 98.6585L118.496 98.491C118.889 98.484 119.202 98.1684 119.194 97.7862C119.188 97.4358 118.914 97.1511 118.566 97.1115L118.47 97.1069Z" fill="#1443BD"/>
<path d="M118.47 97.1069L109.151 97.2745C108.758 97.2815 108.446 97.5971 108.453 97.9793C108.46 98.3296 108.733 98.6144 109.081 98.6539L109.178 98.6585L118.496 98.491C118.889 98.484 119.202 98.1684 119.194 97.7862C119.188 97.4358 118.914 97.1511 118.566 97.1115L118.47 97.1069Z" fill="black" fill-opacity="0.5"/>
<path fill-rule="evenodd" clip-rule="evenodd" d="M148.204 141.372L146.596 141.336C147.783 150.732 111.351 152.102 105.723 141.196C105.581 140.918 105.468 140.657 105.373 140.408L100.936 140.309L99.0471 304.011C99.0471 304.011 130.798 317.201 161.255 306.1C174.516 175.402 148.204 141.372 148.204 141.372Z" fill="#B8C8FF"/>
<path d="M143.804 153.715C143.676 153.45 143.35 153.336 143.078 153.461C142.331 153.804 141.574 154.118 140.807 154.405C132.499 157.512 123.606 157.311 115.196 155.1C113.847 154.745 112.631 154.366 111.567 153.986L111.045 153.795L110.594 153.622C110.43 153.556 110.32 153.511 110.266 153.487C109.991 153.368 109.669 153.488 109.546 153.756C109.423 154.024 109.547 154.337 109.822 154.457L110.182 154.605L110.651 154.786C110.819 154.849 110.999 154.915 111.191 154.983C112.284 155.373 113.531 155.762 114.911 156.125C123.525 158.39 132.643 158.596 141.199 155.396C141.991 155.1 142.772 154.775 143.543 154.422C143.816 154.297 143.933 153.98 143.804 153.715Z" fill="#1443BD"/>
<path d="M143.804 153.715C143.676 153.45 143.35 153.336 143.078 153.461C142.331 153.804 141.574 154.118 140.807 154.405C132.499 157.512 123.606 157.311 115.196 155.1C113.847 154.745 112.631 154.366 111.567 153.986L111.045 153.795L110.594 153.622C110.43 153.556 110.32 153.511 110.266 153.487C109.991 153.368 109.669 153.488 109.546 153.756C109.423 154.024 109.547 154.337 109.822 154.457L110.182 154.605L110.651 154.786C110.819 154.849 110.999 154.915 111.191 154.983C112.284 155.373 113.531 155.762 114.911 156.125C123.525 158.39 132.643 158.596 141.199 155.396C141.991 155.1 142.772 154.775 143.543 154.422C143.816 154.297 143.933 153.98 143.804 153.715Z" fill="white" fill-opacity="0.2"/>
<path fill-rule="evenodd" clip-rule="evenodd" d="M142.725 135.601C142.725 135.601 150.996 157.889 153.088 239.192C154.756 303.947 157.417 414.673 157.417 414.673C157.417 414.673 189.184 413.659 191.876 399.633C193.479 391.288 191.99 176.389 185.443 159.607C178.151 155.659 166.618 149.866 155.35 144.115C152.612 142.719 147.834 138.92 146.094 138.02C141.366 135.573 142.725 135.601 142.725 135.601Z" fill="#E4EBF7"/>
<path d="M189.456 180.12C189.096 180.128 188.805 180.395 188.765 180.734L188.761 180.849L189.279 204.175L189.69 223.497C189.917 234.376 190.141 245.46 190.356 256.567L190.743 277.104C190.846 282.743 190.945 288.281 191.038 293.705L191.332 311.418C191.995 353.157 192.248 383.258 191.967 397.508C191.96 397.89 192.272 398.206 192.665 398.214C193.058 398.221 193.382 397.917 193.39 397.535L193.425 395.491C193.679 378.362 193.305 342.611 192.461 293.681L192.21 279.49C192.093 273.078 191.971 266.532 191.843 259.874L191.45 239.919C191.317 233.296 191.181 226.713 191.045 220.211L190.184 180.797C190.175 180.415 189.849 180.112 189.456 180.12Z" fill="#1443BD"/>
<path d="M189.456 180.12C189.096 180.128 188.805 180.395 188.765 180.734L188.761 180.849L189.279 204.175L189.69 223.497C189.917 234.376 190.141 245.46 190.356 256.567L190.743 277.104C190.846 282.743 190.945 288.281 191.038 293.705L191.332 311.418C191.995 353.157 192.248 383.258 191.967 397.508C191.96 397.89 192.272 398.206 192.665 398.214C193.058 398.221 193.382 397.917 193.39 397.535L193.425 395.491C193.679 378.362 193.305 342.611 192.461 293.681L192.21 279.49C192.093 273.078 191.971 266.532 191.843 259.874L191.45 239.919C191.317 233.296 191.181 226.713 191.045 220.211L190.184 180.797C190.175 180.415 189.849 180.112 189.456 180.12Z" fill="white" fill-opacity="0.2"/>
<path fill-rule="evenodd" clip-rule="evenodd" d="M63.7391 153.749C75.0855 148.547 87.4978 146.477 94.683 142.581C99.2867 140.085 102.991 136.711 106.607 135.572C129.892 237.111 115.533 359.964 110.938 418.341C83.6056 421.625 63.6566 392.845 63.6566 392.845C63.6566 392.845 64.6741 312.157 67.647 259.102C70.1203 214.973 60.8389 155.079 63.7391 153.749Z" fill="#E4EBF7"/>
<path d="M106.892 134.831C106.691 134.543 106.307 134.45 105.994 134.596L105.903 134.648L94.6364 142.102C94.4803 142.205 94.3728 142.365 94.3375 142.545L94.2767 142.906L94.2562 143.042C94.1976 143.441 94.1393 143.917 94.085 144.47C93.1581 153.921 94.4287 167.851 99.6067 186.206L100.121 187.994C101.997 194.399 109.572 219.648 111.388 226.567C114.249 237.464 116.139 247.28 117.45 258.756C117.494 259.136 117.846 259.41 118.236 259.367C118.627 259.325 118.908 258.983 118.865 258.603C117.599 247.522 115.795 237.975 113.108 227.534L112.767 226.224C110.866 218.984 102.707 191.826 101.284 186.909L101.205 186.636C95.9595 168.312 94.6161 154.422 95.4635 145.008L95.5017 144.601C95.5434 144.176 95.5874 143.8 95.6317 143.474L95.6894 143.079L106.703 135.792C106.999 135.597 107.095 135.223 106.944 134.92L106.892 134.831Z" fill="#1443BD"/>
<path d="M106.892 134.831C106.691 134.543 106.307 134.45 105.994 134.596L105.903 134.648L94.6364 142.102C94.4803 142.205 94.3728 142.365 94.3375 142.545L94.2767 142.906L94.2562 143.042C94.1976 143.441 94.1393 143.917 94.085 144.47C93.1581 153.921 94.4287 167.851 99.6067 186.206L100.121 187.994C101.997 194.399 109.572 219.648 111.388 226.567C114.249 237.464 116.139 247.28 117.45 258.756C117.494 259.136 117.846 259.41 118.236 259.367C118.627 259.325 118.908 258.983 118.865 258.603C117.599 247.522 115.795 237.975 113.108 227.534L112.767 226.224C110.866 218.984 102.707 191.826 101.284 186.909L101.205 186.636C95.9595 168.312 94.6161 154.422 95.4635 145.008L95.5017 144.601C95.5434 144.176 95.5874 143.8 95.6317 143.474L95.6894 143.079L106.703 135.792C106.999 135.597 107.095 135.223 106.944 134.92L106.892 134.831Z" fill="white" fill-opacity="0.2"/>
<path d="M143.115 135.021C142.786 134.812 142.345 134.902 142.13 135.222C141.935 135.513 141.993 135.894 142.253 136.118L142.337 136.18L155.509 144.551L155.572 144.91C155.641 145.302 155.715 145.754 155.795 146.267L155.892 146.913C156.224 149.17 156.556 151.94 156.866 155.244L156.996 156.673C159.077 180.225 158.915 214.169 155.047 259.82C155.014 260.201 155.306 260.535 155.697 260.566C156.089 260.598 156.433 260.314 156.465 259.933L156.697 257.148C160.421 211.899 160.462 178.328 158.283 155.118L158.165 153.895C157.907 151.3 157.636 149.055 157.363 147.151L157.202 146.061C157.153 145.748 157.107 145.456 157.062 145.187L156.928 144.414C156.893 144.218 156.866 144.08 156.849 143.998C156.819 143.852 156.742 143.72 156.631 143.622L156.541 143.554L143.115 135.021Z" fill="#1443BD"/>
<path d="M143.115 135.021C142.786 134.812 142.345 134.902 142.13 135.222C141.935 135.513 141.993 135.894 142.253 136.118L142.337 136.18L155.509 144.551L155.572 144.91C155.641 145.302 155.715 145.754 155.795 146.267L155.892 146.913C156.224 149.17 156.556 151.94 156.866 155.244L156.996 156.673C159.077 180.225 158.915 214.169 155.047 259.82C155.014 260.201 155.306 260.535 155.697 260.566C156.089 260.598 156.433 260.314 156.465 259.933L156.697 257.148C160.421 211.899 160.462 178.328 158.283 155.118L158.165 153.895C157.907 151.3 157.636 149.055 157.363 147.151L157.202 146.061C157.153 145.748 157.107 145.456 157.062 145.187L156.928 144.414C156.893 144.218 156.866 144.08 156.849 143.998C156.819 143.852 156.742 143.72 156.631 143.622L156.541 143.554L143.115 135.021Z" fill="white" fill-opacity="0.2"/>
<path d="M66.9613 293.665C66.5733 293.604 66.208 293.861 66.1455 294.238C66.0881 294.584 66.3049 294.912 66.6403 295.011L66.7346 295.032L90.6191 298.779L89.4527 347.779C89.3619 351.561 85.931 354.418 82.1036 353.957L81.8866 353.928L64.7866 351.317C64.3984 351.258 64.0343 351.516 63.9733 351.893C63.9175 352.24 64.1358 352.566 64.4716 352.664L64.566 352.685L81.6658 355.295C86.3491 356.011 90.6159 352.62 90.866 348.049L90.8753 347.811L92.0553 298.209C92.0626 297.894 91.8523 297.619 91.5503 297.53L91.4571 297.509L66.9613 293.665Z" fill="#1443BD"/>
<path d="M66.9613 293.665C66.5733 293.604 66.208 293.861 66.1455 294.238C66.0881 294.584 66.3049 294.912 66.6403 295.011L66.7346 295.032L90.6191 298.779L89.4527 347.779C89.3619 351.561 85.931 354.418 82.1036 353.957L81.8866 353.928L64.7866 351.317C64.3984 351.258 64.0343 351.516 63.9733 351.893C63.9175 352.24 64.1358 352.566 64.4716 352.664L64.566 352.685L81.6658 355.295C86.3491 356.011 90.6159 352.62 90.866 348.049L90.8753 347.811L92.0553 298.209C92.0626 297.894 91.8523 297.619 91.5503 297.53L91.4571 297.509L66.9613 293.665Z" fill="white" fill-opacity="0.2"/>
<path d="M190.877 294.167C190.768 293.833 190.423 293.635 190.078 293.694L189.984 293.716L177.417 297.592C177.155 297.673 176.968 297.891 176.928 298.149L176.92 298.247L176.544 351.172C176.528 353.444 178.874 354.991 181.019 354.183L181.176 354.119L192.906 349.033C193.265 348.878 193.427 348.469 193.267 348.119C193.12 347.799 192.754 347.641 192.418 347.737L192.327 347.769L180.597 352.855C179.399 353.374 178.054 352.562 177.971 351.317L177.967 351.182L178.34 298.759L190.414 295.036C190.757 294.93 190.96 294.594 190.9 294.258L190.877 294.167Z" fill="#1443BD"/>
<path d="M190.877 294.167C190.768 293.833 190.423 293.635 190.078 293.694L189.984 293.716L177.417 297.592C177.155 297.673 176.968 297.891 176.928 298.149L176.92 298.247L176.544 351.172C176.528 353.444 178.874 354.991 181.019 354.183L181.176 354.119L192.906 349.033C193.265 348.878 193.427 348.469 193.267 348.119C193.12 347.799 192.754 347.641 192.418 347.737L192.327 347.769L180.597 352.855C179.399 353.374 178.054 352.562 177.971 351.317L177.967 351.182L178.34 298.759L190.414 295.036C190.757 294.93 190.96 294.594 190.9 294.258L190.877 294.167Z" fill="white" fill-opacity="0.2"/>
<path d="M67.6764 200.389C67.3162 200.383 67.0138 200.638 66.9604 200.975L66.9522 201.068L65.0822 301.919C65.0752 302.302 65.3879 302.617 65.7808 302.624C66.141 302.63 66.4435 302.375 66.4968 302.038L66.5051 301.944L68.375 201.093C68.3821 200.711 68.0693 200.396 67.6764 200.389Z" fill="#1443BD"/>
<path d="M67.6764 200.389C67.3162 200.383 67.0138 200.638 66.9604 200.975L66.9522 201.068L65.0822 301.919C65.0752 302.302 65.3879 302.617 65.7808 302.624C66.141 302.63 66.4435 302.375 66.4968 302.038L66.5051 301.944L68.375 201.093C68.3821 200.711 68.0693 200.396 67.6764 200.389Z" fill="white" fill-opacity="0.2"/>
<rect width="8.52271" height="4.62341" rx="2.3117" transform="matrix(-0.966613 0.25624 0.269769 0.962925 133.541 116.822)" fill="#1443BD"/>
<rect width="8.52271" height="4.62341" rx="2.3117" transform="matrix(-0.966613 0.25624 0.269769 0.962925 133.541 116.822)" fill="black" fill-opacity="0.65"/>
<path d="M126.724 121.437C121.822 123.436 109.078 123.744 106.801 118.207" stroke="#1443BD" stroke-linecap="round" stroke-linejoin="round"/>
<path d="M126.724 121.437C121.822 123.436 109.078 123.744 106.801 118.207" stroke="black" stroke-opacity="0.65" stroke-linecap="round" stroke-linejoin="round"/>
<path d="M128.147 62.834C114.865 62.834 100.539 74.0007 102.057 98.3645" stroke="#1443BD" stroke-width="2" stroke-linecap="round" stroke-linejoin="round"/>
<path d="M128.147 62.834C114.865 62.834 100.539 74.0007 102.057 98.3645" stroke="white" stroke-opacity="0.85" stroke-width="2" stroke-linecap="round" stroke-linejoin="round"/>
<rect width="11.3848" height="15.6888" rx="5.6924" transform="matrix(-1 0 0 1 109.172 97.4419)" fill="#2A84C6"/>
<rect width="11.3848" height="15.6888" rx="5.6924" transform="matrix(-1 0 0 1 107.275 97.4419)" fill="#2A84C6"/>
<rect width="11.3848" height="15.6888" rx="5.6924" transform="matrix(-1 0 0 1 107.275 97.4419)" fill="white" fill-opacity="0.65"/>
</g>
<g clip-path="url(#clip1_509_401)">
<path fill-rule="evenodd" clip-rule="evenodd" d="M299.188 76.2461C286.647 76.2461 276.48 86.1356 276.48 98.3348V98.3912C276.48 110.59 286.647 120.48 299.188 120.48H332.675C333.926 120.48 335.153 120.382 336.349 120.192L342.837 126.288C343.013 126.454 343.249 126.546 343.494 126.546C344.017 126.546 344.44 126.134 344.44 125.626L344.441 117.287C351 113.414 355.383 106.401 355.383 98.3912V98.3348C355.383 86.1356 345.216 76.2461 332.675 76.2461H299.188Z" fill="#1443BD"/>
<path fill-rule="evenodd" clip-rule="evenodd" d="M299.188 76.2461C286.647 76.2461 276.48 86.1356 276.48 98.3348V98.3912C276.48 110.59 286.647 120.48 299.188 120.48H332.675C333.926 120.48 335.153 120.382 336.349 120.192L342.837 126.288C343.013 126.454 343.249 126.546 343.494 126.546C344.017 126.546 344.44 126.134 344.44 125.626L344.441 117.287C351 113.414 355.383 106.401 355.383 98.3912V98.3348C355.383 86.1356 345.216 76.2461 332.675 76.2461H299.188Z" fill="white" fill-opacity="0.65"/>
<g filter="url(#filter0_ddddd_509_401)">
<path d="M304.696 23.3257H256.881C238.965 23.3257 224.441 37.4535 224.441 54.881C224.441 72.3085 238.965 86.4363 256.881 86.4363H304.696C322.611 86.4363 337.135 72.3085 337.135 54.881C337.135 37.4535 322.611 23.3257 304.696 23.3257Z" fill="white"/>
</g>
<g filter="url(#filter1_ddddd_509_401)">
<path fill-rule="evenodd" clip-rule="evenodd" d="M240.07 77.2568V93.7764C240.07 94.5025 240.675 95.0912 241.421 95.0912C241.772 95.0912 242.108 94.959 242.36 94.7225L254.839 83.0096L240.07 77.2568Z" fill="white"/>
</g>
<path d="M259.077 58.825C261.97 58.825 264.315 56.5439 264.315 53.7301C264.315 50.9163 261.97 48.6353 259.077 48.6353C256.185 48.6353 253.84 50.9163 253.84 53.7301C253.84 56.5439 256.185 58.825 259.077 58.825Z" fill="#1443BD"/>
<path d="M259.077 58.825C261.97 58.825 264.315 56.5439 264.315 53.7301C264.315 50.9163 261.97 48.6353 259.077 48.6353C256.185 48.6353 253.84 50.9163 253.84 53.7301C253.84 56.5439 256.185 58.825 259.077 58.825Z" fill="black" fill-opacity="0.5"/>
<path d="M280.535 58.825C283.428 58.825 285.773 56.5439 285.773 53.7301C285.773 50.9163 283.428 48.6353 280.535 48.6353C277.642 48.6353 275.297 50.9163 275.297 53.7301C275.297 56.5439 277.642 58.825 280.535 58.825Z" fill="#1443BD"/>
<path d="M280.535 58.825C283.428 58.825 285.773 56.5439 285.773 53.7301C285.773 50.9163 283.428 48.6353 280.535 48.6353C277.642 48.6353 275.297 50.9163 275.297 53.7301C275.297 56.5439 277.642 58.825 280.535 58.825Z" fill="black" fill-opacity="0.5"/>
<path d="M302.499 58.825C305.392 58.825 307.737 56.5439 307.737 53.7301C307.737 50.9163 305.392 48.6353 302.499 48.6353C299.607 48.6353 297.262 50.9163 297.262 53.7301C297.262 56.5439 299.607 58.825 302.499 58.825Z" fill="#1443BD"/>
<path d="M302.499 58.825C305.392 58.825 307.737 56.5439 307.737 53.7301C307.737 50.9163 305.392 48.6353 302.499 48.6353C299.607 48.6353 297.262 50.9163 297.262 53.7301C297.262 56.5439 299.607 58.825 302.499 58.825Z" fill="black" fill-opacity="0.5"/>
</g>
</g>
<defs>
<filter id="filter0_ddddd_509_401" x="154.441" y="-6.67432" width="252.694" height="203.111" filterUnits="userSpaceOnUse" color-interpolation-filters="sRGB">
<feFlood flood-opacity="0" result="BackgroundImageFix"/>
<feColorMatrix in="SourceAlpha" type="matrix" values="0 0 0 0 0 0 0 0 0 0 0 0 0 0 0 0 0 0 127 0" result="hardAlpha"/>
<feOffset dy="6"/>
<feGaussianBlur stdDeviation="4"/>
<feColorMatrix type="matrix" values="0 0 0 0 0.705882 0 0 0 0 0.831373 0 0 0 0 0.921569 0 0 0 0.12 0"/>
<feBlend mode="normal" in2="BackgroundImageFix" result="effect1_dropShadow_509_401"/>
<feColorMatrix in="SourceAlpha" type="matrix" values="0 0 0 0 0 0 0 0 0 0 0 0 0 0 0 0 0 0 127 0" result="hardAlpha"/>
<feOffset dy="8"/>
<feGaussianBlur stdDeviation="12"/>
<feColorMatrix type="matrix" values="0 0 0 0 0.705882 0 0 0 0 0.831373 0 0 0 0 0.921569 0 0 0 0.08 0"/>
<feBlend mode="normal" in2="effect1_dropShadow_509_401" result="effect2_dropShadow_509_401"/>
<feColorMatrix in="SourceAlpha" type="matrix" values="0 0 0 0 0 0 0 0 0 0 0 0 0 0 0 0 0 0 127 0" result="hardAlpha"/>
<feOffset dy="16"/>
<feGaussianBlur stdDeviation="18"/>
<feColorMatrix type="matrix" values="0 0 0 0 0.705882 0 0 0 0 0.831373 0 0 0 0 0.921569 0 0 0 0.04 0"/>
<feBlend mode="normal" in2="effect2_dropShadow_509_401" result="effect3_dropShadow_509_401"/>
<feColorMatrix in="SourceAlpha" type="matrix" values="0 0 0 0 0 0 0 0 0 0 0 0 0 0 0 0 0 0 127 0" result="hardAlpha"/>
<feOffset dy="40"/>
<feGaussianBlur stdDeviation="35"/>
<feColorMatrix type="matrix" values="0 0 0 0 0.705882 0 0 0 0 0.831373 0 0 0 0 0.921569 0 0 0 0.04 0"/>
<feBlend mode="normal" in2="effect3_dropShadow_509_401" result="effect4_dropShadow_509_401"/>
<feColorMatrix in="SourceAlpha" type="matrix" values="0 0 0 0 0 0 0 0 0 0 0 0 0 0 0 0 0 0 127 0" result="hardAlpha"/>
<feOffset dy="2"/>
<feGaussianBlur stdDeviation="2"/>
<feColorMatrix type="matrix" values="0 0 0 0 0.87451 0 0 0 0 0.929412 0 0 0 0 0.964706 0 0 0 0.4 0"/>
<feBlend mode="normal" in2="effect4_dropShadow_509_401" result="effect5_dropShadow_509_401"/>
<feBlend mode="normal" in="SourceGraphic" in2="effect5_dropShadow_509_401" result="shape"/>
</filter>
<filter id="filter1_ddddd_509_401" x="170.07" y="47.2568" width="154.77" height="157.834" filterUnits="userSpaceOnUse" color-interpolation-filters="sRGB">
<feFlood flood-opacity="0" result="BackgroundImageFix"/>
<feColorMatrix in="SourceAlpha" type="matrix" values="0 0 0 0 0 0 0 0 0 0 0 0 0 0 0 0 0 0 127 0" result="hardAlpha"/>
<feOffset dy="6"/>
<feGaussianBlur stdDeviation="4"/>
<feColorMatrix type="matrix" values="0 0 0 0 0.705882 0 0 0 0 0.831373 0 0 0 0 0.921569 0 0 0 0.12 0"/>
<feBlend mode="normal" in2="BackgroundImageFix" result="effect1_dropShadow_509_401"/>
<feColorMatrix in="SourceAlpha" type="matrix" values="0 0 0 0 0 0 0 0 0 0 0 0 0 0 0 0 0 0 127 0" result="hardAlpha"/>
<feOffset dy="8"/>
<feGaussianBlur stdDeviation="12"/>
<feColorMatrix type="matrix" values="0 0 0 0 0.705882 0 0 0 0 0.831373 0 0 0 0 0.921569 0 0 0 0.08 0"/>
<feBlend mode="normal" in2="effect1_dropShadow_509_401" result="effect2_dropShadow_509_401"/>
<feColorMatrix in="SourceAlpha" type="matrix" values="0 0 0 0 0 0 0 0 0 0 0 0 0 0 0 0 0 0 127 0" result="hardAlpha"/>
<feOffset dy="16"/>
<feGaussianBlur stdDeviation="18"/>
<feColorMatrix type="matrix" values="0 0 0 0 0.705882 0 0 0 0 0.831373 0 0 0 0 0.921569 0 0 0 0.04 0"/>
<feBlend mode="normal" in2="effect2_dropShadow_509_401" result="effect3_dropShadow_509_401"/>
<feColorMatrix in="SourceAlpha" type="matrix" values="0 0 0 0 0 0 0 0 0 0 0 0 0 0 0 0 0 0 127 0" result="hardAlpha"/>
<feOffset dy="40"/>
<feGaussianBlur stdDeviation="35"/>
<feColorMatrix type="matrix" values="0 0 0 0 0.705882 0 0 0 0 0.831373 0 0 0 0 0.921569 0 0 0 0.04 0"/>
<feBlend mode="normal" in2="effect3_dropShadow_509_401" result="effect4_dropShadow_509_401"/>
<feColorMatrix in="SourceAlpha" type="matrix" values="0 0 0 0 0 0 0 0 0 0 0 0 0 0 0 0 0 0 127 0" result="hardAlpha"/>
<feOffset dy="2"/>
<feGaussianBlur stdDeviation="2"/>
<feColorMatrix type="matrix" values="0 0 0 0 0.87451 0 0 0 0 0.929412 0 0 0 0 0.964706 0 0 0 0.4 0"/>
<feBlend mode="normal" in2="effect4_dropShadow_509_401" result="effect5_dropShadow_509_401"/>
<feBlend mode="normal" in="SourceGraphic" in2="effect5_dropShadow_509_401" result="shape"/>
</filter>
<clipPath id="clip0_509_401">
<rect width="361.932" height="354" fill="white" transform="matrix(-1 0 0 1 362 0)"/>
</clipPath>
<clipPath id="clip1_509_401">
<rect width="144.176" height="140.246" fill="white" transform="translate(217.824 4.83594)"/>
</clipPath>
</defs>
</svg>
