<svg width="53" height="52" viewBox="0 0 53 52" fill="none" xmlns="http://www.w3.org/2000/svg">
<path fill-rule="evenodd" clip-rule="evenodd" d="M14.6761 5.57098L46.9389 30.4698C47.5654 29.8203 48.4681 29.4478 49.4373 29.5293C51.1474 29.6732 52.4172 31.1761 52.2733 32.8862C52.1295 34.5964 50.6265 35.8661 48.9164 35.7223C47.7661 35.6255 46.8152 34.9139 46.3595 33.938L7.06054 47.3149C7.17133 47.6804 7.21615 48.0726 7.18219 48.4763C7.03834 50.1864 5.53539 51.4561 3.82525 51.3123C2.11511 51.1684 0.845381 49.6655 0.989231 47.9553C1.12785 46.3074 2.52851 45.0684 4.16046 45.1092L11.1894 6.93492C9.7812 6.54158 8.80528 5.19262 8.93235 3.68199C9.0762 1.97185 10.5792 0.702123 12.2893 0.845973C13.9994 0.989824 15.2692 2.49278 15.1253 4.20292C15.0831 4.70514 14.9236 5.16938 14.6761 5.57098ZM46.0804 32.3653C46.0701 32.4879 46.067 32.6094 46.0709 32.7294L22.9557 35.6601C22.6459 34.4007 21.562 33.4213 20.198 33.3066C19.901 33.2816 19.6103 33.2993 19.3318 33.3544L13.0621 6.87385C13.5396 6.70523 13.9665 6.4225 14.3071 6.05584L46.5608 30.9476C46.2955 31.3604 46.1244 31.8423 46.0804 32.3653ZM18.7477 33.5318L12.4704 7.01904C12.2492 7.05057 12.0213 7.05858 11.7894 7.04064L4.76633 45.1835C5.33347 45.31 5.83738 45.5895 6.23702 45.9734L17.1984 37.8711C16.9235 37.3593 16.7888 36.7647 16.8411 36.1426C16.9418 34.9448 17.7093 33.9631 18.7477 33.5318ZM17.5382 38.3776L6.6341 46.4376C6.70425 46.538 6.76856 46.6426 6.82659 46.7509L46.1573 33.3632C46.1549 33.3533 46.1525 33.3434 46.1502 33.3335L23.0422 36.2633C23.0479 36.3951 23.0454 36.5287 23.0341 36.6635C22.8902 38.3737 21.3872 39.6434 19.6771 39.4995C18.8077 39.4264 18.0521 39.002 17.5382 38.3776Z" fill="#B7EE81"/>
<path fill-rule="evenodd" clip-rule="evenodd" d="M14.6761 5.57098L46.9389 30.4698C47.5654 29.8203 48.4681 29.4478 49.4373 29.5293C51.1474 29.6732 52.4172 31.1761 52.2733 32.8862C52.1295 34.5964 50.6265 35.8661 48.9164 35.7223C47.7661 35.6255 46.8152 34.9139 46.3595 33.938L7.06054 47.3149C7.17133 47.6804 7.21615 48.0726 7.18219 48.4763C7.03834 50.1864 5.53539 51.4561 3.82525 51.3123C2.11511 51.1684 0.845381 49.6655 0.989231 47.9553C1.12785 46.3074 2.52851 45.0684 4.16046 45.1092L11.1894 6.93492C9.7812 6.54158 8.80528 5.19262 8.93235 3.68199C9.0762 1.97185 10.5792 0.702123 12.2893 0.845973C13.9994 0.989824 15.2692 2.49278 15.1253 4.20292C15.0831 4.70514 14.9236 5.16938 14.6761 5.57098ZM46.0804 32.3653C46.0701 32.4879 46.067 32.6094 46.0709 32.7294L22.9557 35.6601C22.6459 34.4007 21.562 33.4213 20.198 33.3066C19.901 33.2816 19.6103 33.2993 19.3318 33.3544L13.0621 6.87385C13.5396 6.70523 13.9665 6.4225 14.3071 6.05584L46.5608 30.9476C46.2955 31.3604 46.1244 31.8423 46.0804 32.3653ZM18.7477 33.5318L12.4704 7.01904C12.2492 7.05057 12.0213 7.05858 11.7894 7.04064L4.76633 45.1835C5.33347 45.31 5.83738 45.5895 6.23702 45.9734L17.1984 37.8711C16.9235 37.3593 16.7888 36.7647 16.8411 36.1426C16.9418 34.9448 17.7093 33.9631 18.7477 33.5318ZM17.5382 38.3776L6.6341 46.4376C6.70425 46.538 6.76856 46.6426 6.82659 46.7509L46.1573 33.3632C46.1549 33.3533 46.1525 33.3434 46.1502 33.3335L23.0422 36.2633C23.0479 36.3951 23.0454 36.5287 23.0341 36.6635C22.8902 38.3737 21.3872 39.6434 19.6771 39.4995C18.8077 39.4264 18.0521 39.002 17.5382 38.3776Z" fill="white" fill-opacity="0.65"/>
</svg>
