<svg width="28" height="28" viewBox="0 0 28 28" fill="none" xmlns="http://www.w3.org/2000/svg">
<path d="M25.6667 7.77776V8.55554C25.6667 8.65868 25.6257 8.7576 25.5528 8.83053C25.4799 8.90346 25.381 8.94443 25.2778 8.94443H24.1112V9.52776C24.1112 9.84991 23.85 10.1111 23.5278 10.1111H4.47226C4.15012 10.1111 3.88893 9.84991 3.88893 9.52776V8.94443H2.72226C2.61912 8.94443 2.52021 8.90346 2.44728 8.83053C2.37435 8.7576 2.33337 8.65868 2.33337 8.55554V7.77776C2.33337 7.70083 2.3562 7.62562 2.39895 7.56166C2.44171 7.49769 2.50247 7.44785 2.57356 7.41843L13.8513 3.14065C13.9466 3.10123 14.0535 3.10123 14.1487 3.14065L25.4265 7.41843C25.4976 7.44785 25.5584 7.49769 25.6011 7.56166C25.6439 7.62562 25.6667 7.70083 25.6667 7.77776V7.77776ZM24.5 22.5555H3.50004C2.8557 22.5555 2.33337 23.0779 2.33337 23.7222V24.5C2.33337 24.6031 2.37435 24.702 2.44728 24.775C2.52021 24.8479 2.61912 24.8889 2.72226 24.8889H25.2778C25.381 24.8889 25.4799 24.8479 25.5528 24.775C25.6257 24.702 25.6667 24.6031 25.6667 24.5V23.7222C25.6667 23.0779 25.1444 22.5555 24.5 22.5555ZM6.22226 10.8889V20.2222H4.47226C4.15012 20.2222 3.88893 20.4834 3.88893 20.8055V21.7778H24.1112V20.8055C24.1112 20.4834 23.85 20.2222 23.5278 20.2222H21.7778V10.8889H18.6667V20.2222H15.5556V10.8889H12.4445V20.2222H9.33337V10.8889H6.22226Z" fill="white"/>
</svg>
