<svg width="22" height="24" viewBox="0 0 22 24" fill="none" xmlns="http://www.w3.org/2000/svg">
<path d="M11 11.9999C14.222 11.9999 16.8333 9.38859 16.8333 6.16659C16.8333 2.94458 14.222 0.333252 11 0.333252C7.77795 0.333252 5.16663 2.94458 5.16663 6.16659C5.16663 9.38859 7.77795 11.9999 11 11.9999ZM15.0833 13.4583H14.3222C13.3105 13.9231 12.1849 14.1874 11 14.1874C9.81506 14.1874 8.69397 13.9231 7.67769 13.4583H6.91663C3.53512 13.4583 0.791626 16.2017 0.791626 19.5833V21.4791C0.791626 22.6868 1.77144 23.6666 2.97913 23.6666H19.0208C20.2285 23.6666 21.2083 22.6868 21.2083 21.4791V19.5833C21.2083 16.2017 18.4648 13.4583 15.0833 13.4583Z" fill="white"/>
</svg>
