<svg width="28" height="28" viewBox="0 0 28 28" fill="none" xmlns="http://www.w3.org/2000/svg">
<path d="M23.3516 8.16675H5.97921C5.57634 8.16675 5.25004 7.84045 5.25004 7.43758C5.25004 7.03472 5.57634 6.70841 5.97921 6.70841H23.4792C23.8821 6.70841 24.2084 6.38211 24.2084 5.97925C24.2084 4.77111 23.229 3.79175 22.0209 3.79175H5.25004C3.63904 3.79175 2.33337 5.09741 2.33337 6.70841V21.2917C2.33337 22.9028 3.63904 24.2084 5.25004 24.2084H23.3516C24.6286 24.2084 25.6667 23.2272 25.6667 22.0209V10.3542C25.6667 9.14793 24.6286 8.16675 23.3516 8.16675ZM21.2917 17.6459C20.4864 17.6459 19.8334 16.9929 19.8334 16.1876C19.8334 15.3823 20.4864 14.7292 21.2917 14.7292C22.097 14.7292 22.75 15.3823 22.75 16.1876C22.75 16.9929 22.097 17.6459 21.2917 17.6459Z" fill="white"/>
</svg>
